<?xml version="1.0" encoding="UTF-8" standalone="no"?>
<svg
   version="1.1"
   width="24"
   height="24"
   viewBox="0 0 24 24"
   id="svg4"
   sodipodi:docname="light-red.svg"
   inkscape:version="1.1.1 (c3084ef, 2021-09-22)"
   xmlns:inkscape="http://www.inkscape.org/namespaces/inkscape"
   xmlns:sodipodi="http://sodipodi.sourceforge.net/DTD/sodipodi-0.dtd"
   xmlns="http://www.w3.org/2000/svg"
   xmlns:svg="http://www.w3.org/2000/svg">
  <defs
     id="defs8" />
  <sodipodi:namedview
     id="namedview6"
     pagecolor="#505050"
     bordercolor="#ffffff"
     borderopacity="1"
     inkscape:pageshadow="0"
     inkscape:pageopacity="0"
     inkscape:pagecheckerboard="1"
     showgrid="false"
     inkscape:zoom="45.254834"
     inkscape:cx="11.214272"
     inkscape:cy="12.805262"
     inkscape:window-width="2560"
     inkscape:window-height="1301"
     inkscape:window-x="0"
     inkscape:window-y="25"
     inkscape:window-maximized="1"
     inkscape:current-layer="svg4" />
  <path
     d="M12,2A7,7 0 0,1 19,9C19,11.38 17.81,13.47 16,14.74V17A1,1 0 0,1 15,18H9A1,1 0 0,1 8,17V14.74C6.19,13.47 5,11.38 5,9A7,7 0 0,1 12,2M9,21V20H15V21A1,1 0 0,1 14,22H10A1,1 0 0,1 9,21M12,4A5,5 0 0,0 7,9C7,11.05 8.23,12.81 10,13.58V16H14V13.58C15.77,12.81 17,11.05 17,9A5,5 0 0,0 12,4Z"
     id="path2"
     style="font-variation-settings:normal;opacity:1;vector-effect:none;fill:#e2e2e2;fill-opacity:1;stroke-width:1;stroke-linecap:butt;stroke-linejoin:miter;stroke-miterlimit:4;stroke-dasharray:none;stroke-dashoffset:0;stroke-opacity:1;-inkscape-stroke:none;stop-color:#000000;stop-opacity:1" />
  <path
     style="fill:#ff0000;fill-opacity:0.988235;stroke:#ff0000;stroke-width:0.37795276;stroke-opacity:0.98823529;stroke-miterlimit:4;stroke-dasharray:none"
     d="M 10.019231,14.77696 V 13.573152 L 9.7019231,13.408324 C 9.0082057,13.047968 8.2887758,12.400567 7.8543512,11.745729 6.7154862,10.02904 6.7517803,7.7992161 7.9458814,6.1223274 8.2569531,5.6854862 8.9147425,5.0589059 9.3401611,4.7941999 11.073794,3.7154905 13.233719,3.774613 14.877673,4.9457753 c 0.43696,0.3112935 1.063493,0.9690833 1.328127,1.3943858 1.220646,1.9617443 0.97388,4.4270859 -0.608504,6.0793059 -0.389588,0.406782 -0.812073,0.73026 -1.276322,0.977223 l -0.338808,0.180233 -6.99e-4,1.201923 -6.98e-4,1.201923 H 12 10.019231 Z"
     id="path963" />
</svg>
